/* XPM */
static char * rxvt_tile_xpm[] = {
"16 18 3 1",
"  c #000040",
". c #000060",
"+ c #000080",
"                ",
"................",
"++++++++++++++++",
"................",
"                ",
"                ",
"                ",
"................",
"++++++++++++++++",
"................",
"                ",
"                ",
"                ",
"................",
"++++++++++++++++",
"................",
"                ",
"                "};

